TITLE ""
FILE "DISC1Track08.mp3" MP3
  TRACK 01 AUDIO
    TITLE "DISC1Track08_01"
    INDEX 01 00:00:00
  TRACK 02 AUDIO
    TITLE "DISC1Track08_02"
    INDEX 01 00:02:33
  TRACK 03 AUDIO
    TITLE "DISC1Track08_03"
    INDEX 01 00:02:58
  TRACK 04 AUDIO
    TITLE "DISC1Track08_04"
    INDEX 01 00:05:13
  TRACK 05 AUDIO
    TITLE "DISC1Track08_05"
    INDEX 01 00:07:26
  TRACK 06 AUDIO
    TITLE "DISC1Track08_06"
    INDEX 01 00:09:31
  TRACK 07 AUDIO
    TITLE "DISC1Track08_07"
    INDEX 01 00:09:56
  TRACK 08 AUDIO
    TITLE "DISC1Track08_08"
    INDEX 01 00:12:15
  TRACK 09 AUDIO
    TITLE "DISC1Track08_09"
    INDEX 01 00:14:30
  TRACK 10 AUDIO
    TITLE "DISC1Track08_10"
    INDEX 01 00:16:23
  TRACK 11 AUDIO
    TITLE "DISC1Track08_11"
    INDEX 01 00:16:54
  TRACK 12 AUDIO
    TITLE "DISC1Track08_12"
    INDEX 01 00:19:08
  TRACK 13 AUDIO
    TITLE "DISC1Track08_13"
    INDEX 01 00:21:28
  TRACK 14 AUDIO
    TITLE "DISC1Track08_14"
    INDEX 01 00:23:27
  TRACK 15 AUDIO
    TITLE "DISC1Track08_15"
    INDEX 01 00:23:58
  TRACK 16 AUDIO
    TITLE "DISC1Track08_16"
    INDEX 01 00:26:49
  TRACK 17 AUDIO
    TITLE "DISC1Track08_17"
    INDEX 01 00:29:06
  TRACK 18 AUDIO
    TITLE "DISC1Track08_18"
    INDEX 01 00:31:19
  TRACK 19 AUDIO
    TITLE "DISC1Track08_19"
    INDEX 01 00:31:48
  TRACK 20 AUDIO
    TITLE "DISC1Track08_20"
    INDEX 01 00:34:39
  TRACK 21 AUDIO
    TITLE "DISC1Track08_21"
    INDEX 01 00:37:04
  TRACK 22 AUDIO
    TITLE "DISC1Track08_22"
    INDEX 01 00:39:24
  TRACK 23 AUDIO
    TITLE "DISC1Track08_23"
    INDEX 01 00:39:53
  TRACK 24 AUDIO
    TITLE "DISC1Track08_24"
    INDEX 01 00:42:73
  TRACK 25 AUDIO
    TITLE "DISC1Track08_25"
    INDEX 01 00:45:74
  TRACK 26 AUDIO
    TITLE "DISC1Track08_26"
    INDEX 01 00:48:54
  TRACK 27 AUDIO
    TITLE "DISC1Track08_27"
    INDEX 01 00:49:09
  TRACK 28 AUDIO
    TITLE "DISC1Track08_28"
    INDEX 01 00:53:14
  TRACK 29 AUDIO
    TITLE "DISC1Track08_29"
    INDEX 01 00:56:34
  TRACK 30 AUDIO
    TITLE "DISC1Track08_30"
    INDEX 01 00:59:35
  TRACK 31 AUDIO
    TITLE "DISC1Track08_31"
    INDEX 01 00:59:64
  TRACK 32 AUDIO
    TITLE "DISC1Track08_32"
    INDEX 01 01:02:43
  TRACK 33 AUDIO
    TITLE "DISC1Track08_33"
    INDEX 01 01:04:59
  TRACK 34 AUDIO
    TITLE "DISC1Track08_34"
    INDEX 01 01:06:58
  TRACK 35 AUDIO
    TITLE "DISC1Track08_35"
    INDEX 01 01:07:05
  TRACK 36 AUDIO
    TITLE "DISC1Track08_36"
    INDEX 01 01:08:43
  TRACK 37 AUDIO
    TITLE "DISC1Track08_37"
    INDEX 01 01:10:52
  TRACK 38 AUDIO
    TITLE "DISC1Track08_38"
    INDEX 01 01:12:51
  TRACK 39 AUDIO
    TITLE "DISC1Track08_39"
    INDEX 01 01:13:05
  TRACK 40 AUDIO
    TITLE "DISC1Track08_40"
    INDEX 01 01:15:55
  TRACK 41 AUDIO
    TITLE "DISC1Track08_41"
    INDEX 01 01:17:64
  TRACK 42 AUDIO
    TITLE "DISC1Track08_42"
    INDEX 01 01:19:51
  TRACK 43 AUDIO
    TITLE "DISC1Track08_43"
    INDEX 01 01:20:05
  TRACK 44 AUDIO
    TITLE "DISC1Track08_44"
    INDEX 01 01:21:42
  TRACK 45 AUDIO
    TITLE "DISC1Track08_45"
    INDEX 01 01:23:47
  TRACK 46 AUDIO
    TITLE "DISC1Track08_46"
    INDEX 01 01:25:32
  TRACK 47 AUDIO
    TITLE "DISC1Track08_47"
    INDEX 01 01:25:63
  TRACK 48 AUDIO
    TITLE "DISC1Track08_48"
    INDEX 01 01:29:14
  TRACK 49 AUDIO
    TITLE "DISC1Track08_49"
    INDEX 01 01:31:68
  TRACK 50 AUDIO
    TITLE "DISC1Track08_50"
    INDEX 01 01:34:19
  TRACK 51 AUDIO
    TITLE "DISC1Track08_51"
    INDEX 01 01:34:54
  TRACK 52 AUDIO
    TITLE "DISC1Track08_52"
    INDEX 01 01:36:18
  TRACK 53 AUDIO
    TITLE "DISC1Track08_53"
    INDEX 01 01:38:43
  TRACK 54 AUDIO
    TITLE "DISC1Track08_54"
    INDEX 01 01:40:57
